<svg width="261" height="180" viewBox="0 0 261 180" fill="none" xmlns="http://www.w3.org/2000/svg">
<path fill-rule="evenodd" clip-rule="evenodd" d="M115.276 32.318C121.474 32.6581 128.202 32.3936 134.362 32.3936C140.712 32.3936 147.061 32.3936 153.411 32.3936C163.351 32.3936 176.013 32.2046 179.83 43.9589C183.496 55.2597 176.542 66.7873 170.835 71.2849C162.557 77.7479 152.92 78.655 139.956 78.466L143.773 63.0833C144.378 60.7778 147.666 48.9101 147.779 47.6629L59.2629 47.6251L42.4062 110.781L78.274 110.819C78.8787 109.723 83.8677 90.0692 84.737 87.0078L89.4992 69.244C89.9149 67.77 90.633 64.255 91.1622 63.2345H106.734L94.1102 110.743C100.876 111.008 107.943 110.819 114.709 110.819C121.587 110.819 128.504 110.819 135.383 110.819C149.253 110.819 160.516 110.441 172.498 106.699C193.134 100.236 208.176 86.5164 215.131 66.9385C218.797 56.5448 219.742 42.1448 216.378 31.0329C209.31 7.86444 187.729 0.607748 164.976 0.0786142C158.211 -0.0725669 151.294 0.0408189 144.491 0.0408189C137.65 0.0408189 130.696 -0.0725669 123.817 0.0786142L115.276 32.318ZM88.2519 0.192C78.3874 1.55263 70.5637 8.46916 67.7669 16.8597C63.874 28.3495 71.1685 37.6093 82.885 36.3621C92.485 35.3038 100.649 27.707 103.332 19.7322C107.15 8.31798 99.8929 -1.3954 88.2519 0.192Z" fill="#FE1600"/>
<path fill-rule="evenodd" clip-rule="evenodd" d="M129.335 141.622C129.411 140.45 130.658 135.764 131.111 135.083C133.379 135.008 140.485 134.29 138.746 138.976C137.65 141.924 133.039 141.773 129.335 141.622ZM113.083 159.386L124.422 159.461C124.8 157.912 126.652 150.655 127.181 149.786L129.713 149.748L133.568 159.424L145.738 159.461L141.203 148.236C143.168 147.065 147.212 146.498 149.518 141.433C151.294 137.502 150.765 132.438 148.27 129.565C145.965 126.995 141.732 125.71 137.272 125.559C132.472 125.408 126.992 125.37 122.192 125.521L113.083 159.386ZM150.085 159.424L179.111 159.461L181.606 150.126L163.729 150.088L164.636 146.46L173.707 146.422L175.861 138.296L166.941 138.258L167.735 134.857H185.499L187.993 125.559L159.08 125.521L152.239 150.806C151.634 152.961 150.274 157.307 150.085 159.424ZM6.04688 159.386L35.2248 159.461L37.7193 150.164L19.8422 150.088C20.2579 144.835 21.4296 146.724 29.7445 146.498L31.9744 138.334L23.0547 138.258C23.0547 137.351 23.5839 135.461 23.9618 134.894L41.4233 134.857C41.8768 134.139 43.9933 126.579 44.0311 125.597L15.1933 125.521L6.04688 159.386ZM225.411 146.309C224.882 146.611 219.25 153.263 218.985 154.019C220.384 155.568 223.861 157.609 226.356 158.479C229.757 159.688 232.478 160.179 236.598 160.066C243.59 159.877 249.411 156.4 250.658 150.504C253.152 138.561 237.543 138.183 236.296 135.877C234.784 133.042 241.133 133.836 244.611 135.461C245.971 136.066 247.483 137.351 248.428 137.653C249.486 136.293 254.173 130.964 254.664 130.019C253.87 128.507 249.07 126.428 246.954 125.861C243.893 125.03 239.924 124.463 236.447 125.068C230.059 126.202 224.466 129.905 224.428 136.86C224.39 143.965 231.722 145.364 237.165 147.669C241.058 149.294 239.433 152.053 233.272 150.504C231.798 150.126 230.248 149.408 229.039 148.727C227.678 147.972 226.545 146.913 225.411 146.309ZM191.433 146.233C190.677 146.876 185.234 153.225 185.008 154.019C190.601 160.142 206.4 163.052 213.656 155.946C217.058 152.62 218.608 146.12 214.563 142.113C212.938 140.488 210.822 139.505 208.403 138.561C206.551 137.805 201.94 136.633 202.091 135.197C202.393 132.589 209.045 134.554 211.615 135.953C212.56 136.52 213.467 137.2 214.261 137.616C215.13 137.087 218.078 133.194 219.099 131.984C219.741 131.266 220.497 130.775 220.686 129.754C215.395 126.05 209.234 123.934 202.318 125.105C196.082 126.164 190.337 130.019 190.45 136.86C190.563 146.233 203.641 146.309 205.001 148.803C206.4 151.335 201.751 151.184 198.992 150.428C196.119 149.597 193.36 147.82 191.433 146.233ZM38.1351 159.386C40.5918 159.613 46.4122 159.424 49.5114 159.461C51.5524 159.499 51.2878 159.272 52.2705 158.214C53.291 157.005 58.7335 150.617 59.6406 150.239L63.2689 159.461H75.4012C75.1744 157.647 68.2201 142.907 68.2957 142.227C68.5981 141.471 74.8343 134.894 75.8925 133.874C77.2154 132.627 78.4626 131.115 79.7099 129.792C80.428 129.036 83.187 126.353 83.4516 125.521H72.9067C71.3949 125.521 70.7902 125.219 69.9965 126.05C68.6736 127.411 64.2138 132.929 63.1555 133.572L60.0941 125.559L47.924 125.521C47.9618 126.39 51.3634 134.101 51.9681 135.424C52.6484 137.049 53.3288 138.712 54.0847 140.375C54.8406 142.076 54.2359 141.962 51.8547 144.57C50.4185 146.082 38.891 158.214 38.1351 159.386ZM94.6768 142.151C94.6012 141.055 96.1886 135.877 96.5288 134.63C98.2673 134.63 100.119 134.516 101.367 135.272C103.71 136.671 104.05 142.642 94.6768 142.151ZM78.6138 159.424L89.8768 159.461L92.3335 150.315C99.25 149.937 102.425 150.768 107.905 147.669C115.54 143.323 118.223 128.961 105.373 126.088C100.837 125.105 92.7492 125.483 87.6469 125.521L80.8059 150.731C80.2012 153.15 78.8028 157.156 78.6138 159.424Z" fill="#FD1602"/>
<path d="M5.97165 176.809L1.39843 170.838H0V179.455H1.51181V173.332L6.19843 179.455H7.44567V170.838H5.97165V176.809ZM16.5921 170.8H15.1937L11.4142 179.455H12.9638L13.8331 177.376H17.8772L18.7465 179.455H20.3339L16.5921 170.8ZM17.348 176.053H14.4L15.874 172.614L17.348 176.053ZM26.6079 177.452L24.0378 170.838H22.3748L25.9276 179.531H27.2504L30.7654 170.838H29.178L26.6079 177.452ZM34.8472 170.838V179.455H36.3591V170.838H34.8472ZM48.7559 178.283V174.655H45.1276V175.978H47.3197V177.603C47.0551 177.792 46.7528 177.943 46.3748 178.057C46.0346 178.17 45.6567 178.246 45.2409 178.246C44.8252 178.246 44.4094 178.17 44.0693 178.019C43.6913 177.868 43.389 177.641 43.1622 177.376C42.8976 177.074 42.7087 176.772 42.5575 176.394C42.4063 176.016 42.3685 175.6 42.3685 175.146C42.3685 174.731 42.4063 174.353 42.5575 173.975C42.7087 173.597 42.8976 173.257 43.1622 172.992C43.389 172.727 43.6913 172.501 44.0315 172.35C44.3717 172.161 44.7118 172.085 45.1276 172.085C45.3921 172.085 45.6189 172.123 45.8457 172.161C46.0724 172.198 46.2992 172.274 46.4882 172.35C46.6772 172.425 46.8283 172.538 47.0173 172.652C47.1685 172.765 47.3575 172.879 47.5087 173.03L48.4535 171.858C48.2268 171.669 48 171.518 47.7732 171.367C47.5465 171.216 47.3197 171.102 47.0551 171.027C46.7906 170.913 46.4882 170.838 46.1858 170.8C45.8835 170.724 45.5433 170.687 45.1654 170.687C44.5228 170.687 43.9559 170.838 43.389 171.064C42.8598 171.291 42.4063 171.631 41.9906 172.009C41.6126 172.425 41.3102 172.916 41.0835 173.446C40.8945 173.975 40.7811 174.579 40.7811 175.184C40.7811 175.789 40.8945 176.394 41.0835 176.923C41.3102 177.452 41.6126 177.943 41.9906 178.321C42.3685 178.737 42.8598 179.039 43.389 179.266C43.9181 179.493 44.5228 179.606 45.2031 179.606C45.5811 179.606 45.9213 179.568 46.2614 179.493C46.6016 179.455 46.9417 179.342 47.2441 179.228C47.5465 179.077 47.811 178.964 48.0756 178.775C48.3024 178.624 48.5669 178.435 48.7559 178.283ZM57.6378 170.8H56.2772L52.4976 179.455H54.0472L54.9165 177.376H58.9606L59.8299 179.455H61.4173L57.6378 170.8ZM58.3937 176.053H55.4835L56.9197 172.614L58.3937 176.053ZM67.9181 172.236H70.6016V170.838H63.685V172.236H66.4063V179.455H67.9181V172.236ZM81.0331 170.838H74.7213V179.455H81.1087V178.094H76.1953V175.789H80.5039V174.428H76.1953V172.198H81.0331V170.838ZM97.1339 170.8H95.7354L91.9937 179.455H93.5433L94.4126 177.376H98.4567L99.326 179.455H100.913L97.1339 170.8ZM97.8898 176.053H94.9795L96.4157 172.614L97.8898 176.053ZM112.592 175.146C112.592 174.542 112.479 173.975 112.29 173.446C112.063 172.916 111.761 172.463 111.345 172.085C110.929 171.707 110.476 171.405 109.909 171.178C109.342 170.951 108.737 170.838 108.057 170.838H104.882V179.455H108.057C108.737 179.455 109.342 179.342 109.909 179.115C110.476 178.926 110.929 178.624 111.345 178.208C111.761 177.83 112.063 177.376 112.29 176.847C112.479 176.318 112.592 175.751 112.592 175.146ZM111.043 175.184C111.043 175.6 110.967 175.978 110.816 176.356C110.665 176.696 110.476 176.998 110.211 177.263C109.946 177.527 109.644 177.754 109.266 177.868C108.926 178.019 108.51 178.094 108.057 178.094H106.356V172.198H108.057C108.51 172.198 108.926 172.274 109.266 172.425C109.644 172.576 109.946 172.803 110.211 173.068C110.476 173.332 110.665 173.635 110.816 173.975C110.967 174.353 111.043 174.731 111.043 175.184ZM119.887 177.452L117.317 170.838H115.654L119.206 179.531H120.529L124.082 170.838H122.457L119.887 177.452ZM131.263 170.8H129.865L126.123 179.455H127.635L128.542 177.376H132.548L133.417 179.455H135.005L131.263 170.8ZM132.019 176.053H129.071L130.545 172.614L132.019 176.053ZM144.945 176.809L140.372 170.838H139.011V179.455H140.485V173.332L145.172 179.455H146.457V170.838H144.945V176.809ZM158.589 178.094L157.606 177.112C157.266 177.452 156.888 177.716 156.51 177.905C156.132 178.132 155.679 178.208 155.15 178.208C154.772 178.208 154.394 178.132 154.054 177.981C153.676 177.83 153.411 177.603 153.146 177.338C152.882 177.036 152.693 176.734 152.542 176.356C152.428 175.978 152.353 175.562 152.353 175.146C152.353 174.731 152.428 174.315 152.542 173.937C152.693 173.597 152.882 173.257 153.146 172.992C153.411 172.727 153.676 172.501 154.054 172.35C154.394 172.161 154.772 172.085 155.15 172.085C155.641 172.085 156.094 172.198 156.472 172.387C156.85 172.576 157.228 172.841 157.569 173.181L158.513 172.047C158.324 171.858 158.098 171.669 157.871 171.518C157.644 171.329 157.417 171.216 157.115 171.064C156.85 170.951 156.586 170.875 156.246 170.8C155.943 170.724 155.565 170.687 155.187 170.687C154.545 170.687 153.94 170.838 153.411 171.064C152.882 171.291 152.391 171.594 152.013 172.009C151.635 172.425 151.332 172.879 151.106 173.446C150.879 173.975 150.765 174.542 150.765 175.184C150.765 175.789 150.879 176.394 151.106 176.923C151.332 177.452 151.635 177.943 152.013 178.321C152.391 178.737 152.844 179.039 153.373 179.266C153.902 179.493 154.507 179.606 155.112 179.606C155.528 179.606 155.868 179.568 156.208 179.493C156.548 179.455 156.85 179.342 157.115 179.19C157.38 179.077 157.644 178.888 157.909 178.737C158.135 178.548 158.362 178.321 158.589 178.094ZM168.983 170.838H162.671V179.455H169.058V178.094H164.183V175.789H168.454V174.428H164.183V172.198H168.983V170.838ZM188.409 175.146C188.409 174.542 188.296 173.975 188.069 173.446C187.843 172.916 187.54 172.463 187.162 172.085C186.746 171.707 186.255 171.405 185.688 171.178C185.159 170.951 184.554 170.838 183.874 170.838H180.699V179.455H183.874C184.554 179.455 185.159 179.342 185.688 179.115C186.255 178.926 186.746 178.624 187.162 178.208C187.54 177.83 187.843 177.376 188.069 176.847C188.296 176.318 188.409 175.751 188.409 175.146ZM186.822 175.184C186.822 175.6 186.746 175.978 186.633 176.356C186.482 176.696 186.293 176.998 186.028 177.263C185.764 177.527 185.461 177.754 185.083 177.868C184.706 178.019 184.328 178.094 183.874 178.094H182.173V172.198H183.874C184.328 172.198 184.706 172.274 185.083 172.425C185.461 172.576 185.764 172.803 186.028 173.068C186.293 173.332 186.482 173.635 186.633 173.975C186.746 174.353 186.822 174.731 186.822 175.184ZM199.068 170.838H192.756V179.455H199.106V178.094H194.23V175.789H198.501V174.428H194.23V172.198H199.068V170.838ZM203.452 179.455H209.424V178.094H204.926V170.838H203.452V179.455ZM213.581 170.838V179.455H215.093V170.838H213.581ZM223.408 177.452L220.838 170.838H219.175L222.728 179.531H224.013L227.565 170.838H225.94L223.408 177.452ZM237.883 170.838H231.572V179.455H237.959V178.094H233.046V175.789H237.317V174.428H233.046V172.198H237.883V170.838ZM249.487 179.455L247.181 176.205C247.483 176.129 247.786 176.016 248.013 175.864C248.277 175.713 248.466 175.524 248.655 175.298C248.844 175.071 248.995 174.844 249.071 174.542C249.184 174.277 249.222 173.937 249.222 173.597C249.222 173.181 249.146 172.803 248.995 172.463C248.882 172.123 248.655 171.82 248.391 171.594C248.126 171.367 247.786 171.178 247.37 171.027C246.992 170.913 246.539 170.838 246.047 170.838H242.268V179.455H243.742V176.469H245.631L247.748 179.455H249.487ZM247.71 173.672C247.71 174.126 247.559 174.466 247.219 174.731C246.917 174.995 246.501 175.109 245.934 175.109H243.742V172.198H245.934C246.501 172.198 246.917 172.35 247.257 172.576C247.559 172.841 247.71 173.181 247.71 173.672ZM257.31 176.016L260.712 170.838H258.973L256.554 174.655L254.173 170.838H252.397L255.798 176.053V179.455H257.31V176.016Z" fill="black"/>
</svg>
