<svg width="794" height="332" viewBox="0 0 794 332" fill="none" xmlns="http://www.w3.org/2000/svg">
<path fill-rule="evenodd" clip-rule="evenodd" d="M522.52 238.11L572.485 0H759.042L746.57 59.5276H653.253L647.017 89.3102H726.387L713.915 148.838H634.545L628.309 178.583H721.625L709.115 238.11H522.52Z" fill="#25387B"/>
<path fill-rule="evenodd" clip-rule="evenodd" d="M0 238.11C165.921 158.74 390.501 108.132 595.313 89.3103C650.646 84.2079 705.487 81.3733 781.795 81.3733C784.781 81.3733 789.732 80.3528 793.701 79.3701L778.318 152.806C777.449 156.775 770.872 158.74 765.921 158.74C297.978 158.74 17.8772 238.11 17.8772 238.11H0Z" fill="#DF2128"/>
<path fill-rule="evenodd" clip-rule="evenodd" d="M251.263 238.11L301.19 0H390.5L443.603 108.132L466.28 0H555.59L505.663 238.11H416.352L364.082 126.009L340.573 238.11H251.263Z" fill="#25387B"/>
<path fill-rule="evenodd" clip-rule="evenodd" d="M165.921 138.898L195.024 0H284.334L249.411 166.677C238.564 218.268 198.425 238.11 145.134 238.11H79.3701L94.337 166.677H124.12C145.928 166.677 161.764 158.74 165.921 138.898Z" fill="#25387B"/>
<path d="M452.221 317.178L454.11 304.517H473.953L475.767 291.137H455.925L457.285 281.121H477.808L479.584 267.78H447.723L439.257 330.52H472.63L474.482 317.178H452.221Z" fill="#25387C"/>
<path d="M522.444 267.78H508.611L502.072 279.194C501.09 280.97 499.918 283.049 498.633 285.468C497.613 282.217 497.046 280.441 496.932 280.063L492.813 267.78H480.983L490.998 298.62L473.008 330.52H487.143L492.926 320.428C494.249 318.085 495.345 316.12 496.176 314.532C496.668 316.195 497.272 318.123 497.99 320.391L501.241 330.52H513.789L503.849 300.888L522.444 267.78Z" fill="#25387C"/>
<path d="M554.343 284.372C554.343 280.932 553.814 277.909 552.793 275.376C551.735 272.731 550.223 270.765 548.296 269.556C546.406 268.384 543.912 267.78 540.812 267.78H523.729L515.263 330.52H526.601L529.663 307.918H533.215C536.768 307.918 539.149 307.767 540.51 307.465C542.853 306.973 544.781 306.217 546.217 305.197C547.653 304.214 548.976 302.74 550.186 300.85C551.395 298.998 552.34 296.617 553.171 293.556C553.927 290.608 554.343 287.509 554.343 284.372ZM533.291 280.97H537.449C540.737 280.97 541.455 281.348 541.53 281.386C541.946 281.613 542.286 281.991 542.513 282.595C542.853 283.276 543.004 284.22 543.004 285.392C543.004 287.282 542.626 289.02 541.946 290.57C541.304 292.006 540.434 293.027 539.376 293.669C538.734 294.009 536.919 294.652 531.893 294.652H531.439L533.291 280.97Z" fill="#25387C"/>
<path d="M584.466 308.523C583.899 307.049 583.294 305.764 582.69 304.668C585.978 303.496 588.548 301.417 590.324 298.394C592.441 294.879 593.499 290.381 593.499 285.052C593.499 281.31 592.97 278.06 591.874 275.376C590.702 272.542 589.153 270.501 587.187 269.405C585.26 268.309 582.765 267.78 579.477 267.78H560.995L552.491 330.52H563.868L567.194 305.991H568.894C570.746 305.991 571.389 306.406 571.54 306.595C572.258 307.351 573.354 309.203 574.601 313.625C576.567 320.617 577.89 325.833 578.57 329.159L578.835 330.52H590.929L590.4 328.365C588.208 319.899 586.242 313.209 584.466 308.523ZM570.52 281.121H577.701C580.422 281.121 581.027 281.613 581.027 281.613C581.783 282.369 582.198 283.578 582.198 285.241C582.198 286.791 581.858 288.34 581.178 289.776C580.535 291.137 579.704 292.082 578.646 292.687C578.003 293.027 576.189 293.632 571.049 293.632H568.857L570.52 281.121Z" fill="#25387C"/>
<path d="M627.704 304.517L629.518 291.137H609.676L611.036 281.121H631.559L633.335 267.78H601.474L593.008 330.52H626.381L628.233 317.178H605.972L607.861 304.517H627.704Z" fill="#25387B"/>
<path d="M651.477 279.874C653.178 279.874 654.312 280.365 655.144 281.461C656.051 282.671 656.618 284.561 656.769 287.055L656.882 288.794L667.843 288L667.767 286.337C667.503 280.592 666.029 275.868 663.345 272.353C660.548 268.649 656.58 266.759 651.553 266.759C646.564 266.759 642.671 268.649 639.988 272.428C637.493 275.981 636.208 280.517 636.208 285.846C636.208 288.907 636.624 291.628 637.455 293.934C638.325 296.277 639.572 298.242 641.122 299.754C642.558 301.191 644.788 302.891 647.849 304.97C651.515 307.427 652.574 308.485 652.914 308.901C653.594 309.808 653.934 310.942 653.934 312.302C653.934 313.928 653.518 315.288 652.611 316.384C651.78 317.405 650.419 317.896 648.378 317.896C645.128 317.896 644.032 316.611 643.503 315.628C643.163 315.061 642.596 313.398 642.482 308.939L642.444 307.124L631.559 307.994L631.522 309.581C631.484 313.701 631.975 317.405 632.996 320.655C634.092 324.019 636.057 326.74 638.74 328.668C641.462 330.557 644.674 331.54 648.303 331.54C653.632 331.54 657.865 329.424 660.888 325.266C663.761 321.26 665.197 316.422 665.197 310.828C665.197 306.293 664.214 302.476 662.249 299.49C660.888 297.449 657.978 294.954 653.329 291.855C649.928 289.55 648.605 288.265 648.076 287.584C647.471 286.791 647.169 285.732 647.169 284.409C647.169 283.011 647.509 281.877 648.189 281.008C648.794 280.252 649.89 279.874 651.477 279.874Z" fill="#25387C"/>
<path d="M690.255 291.855C686.816 289.55 685.493 288.265 684.964 287.584C684.359 286.791 684.056 285.732 684.056 284.409C684.056 283.011 684.397 281.877 685.077 281.008C685.682 280.252 686.778 279.874 688.403 279.874C690.066 279.874 691.238 280.365 692.031 281.461C692.938 282.671 693.505 284.561 693.656 287.055L693.77 288.794L704.73 288L704.655 286.337C704.39 280.592 702.916 275.868 700.271 272.353C697.474 268.649 693.467 266.759 688.441 266.759C683.452 266.759 679.559 268.649 676.913 272.428C674.381 275.981 673.096 280.517 673.096 285.846C673.096 288.907 673.512 291.628 674.381 293.934C675.25 296.277 676.46 298.242 678.009 299.754C679.445 301.191 681.675 302.891 684.737 304.97C688.403 307.427 689.461 308.485 689.801 308.901C690.519 309.808 690.822 310.942 690.822 312.302C690.822 313.928 690.406 315.288 689.499 316.384C688.705 317.405 687.307 317.896 685.266 317.896C682.016 317.896 680.919 316.611 680.39 315.628C680.088 315.061 679.521 313.398 679.37 308.939L679.332 307.124L668.447 307.994V309.581C668.371 313.701 668.863 317.405 669.921 320.655C671.017 324.019 672.945 326.74 675.666 328.668C678.349 330.557 681.562 331.54 685.19 331.54C690.557 331.54 694.753 329.424 697.776 325.266C700.649 321.26 702.085 316.422 702.085 310.828C702.085 306.293 701.102 302.476 699.137 299.49C697.776 297.449 694.866 294.954 690.255 291.855Z" fill="#25387C"/>
</svg>
