<svg width="461" height="195" viewBox="0 0 461 195" fill="none" xmlns="http://www.w3.org/2000/svg">
<g clip-path="url(#clip0_196_141)">
<path fill-rule="evenodd" clip-rule="evenodd" d="M159.55 50.84C150.21 50.84 141.82 56.88 135.91 63.88V52.24H111.04V132.91H137.15V92.07C137.15 78.06 143.61 72.15 151.99 72.15C159.55 72.15 164.22 77.29 164.22 89.43V132.92H190.33V88.36C190.33 62.21 177 50.85 159.55 50.85V50.84ZM346.44 122.26V137.24C346.44 137.24 346.7 152.8 330.2 148.94H330.18L328.65 170.16C331.86 170.82 371.96 178.39 371.96 141.1L372.54 122.26V52.24H346.43V122.26H346.44ZM219.74 42.9C229.36 42.9 235.68 36.05 235.68 26.71C235.68 17.37 229.36 11.46 219.74 11.46C210.12 11.46 203.8 18.31 203.8 27.18C203.8 36.05 210.12 42.9 219.74 42.9ZM206.68 132.91H232.79V52.24H206.68V132.91ZM298.2 50.84C315.65 50.84 328.98 62.2 328.98 88.35V132.91H302.87V89.42C302.87 77.28 298.2 72.14 290.64 72.14C282.26 72.14 275.8 78.05 275.8 92.06V132.9H249.69V52.24H274.56V63.88C280.47 56.88 288.85 50.84 298.2 50.84ZM359.49 42.9C369.11 42.9 375.43 36.05 375.43 26.71C375.43 17.37 369.11 11.46 359.49 11.46C349.87 11.46 343.55 18.31 343.55 27.18C343.55 36.05 349.87 42.9 359.49 42.9ZM423.4 49.9C411.72 49.9 395.68 55.9 387.87 63.33L401.23 77.71C406.31 73.2 413.11 70 420.25 70C430.56 70 435.08 73.7 435.49 82.26L413.95 84.43C390.98 86.75 383.93 96.77 383.93 112.33C383.93 123.33 395.17 134.93 413.03 134.93C421.49 134.93 432.83 131.66 436.54 123.57V132.94H460.86L460.98 87.73C461.05 60.96 447.57 49.87 423.38 49.87L423.4 49.9ZM420.09 117.27C413.91 117.27 408.75 113.81 408.75 108.83C408.75 103.85 414.07 99.38 422.44 98.81L436.59 97.85V105.02C433.52 115.22 425.86 117.28 420.09 117.28V117.27Z" fill="#E41E26"/>
<path fill-rule="evenodd" clip-rule="evenodd" d="M145.79 179.06L133.48 161.6L145.32 144.9H135.49L128.56 154.87L121.81 144.9H111.45L123.29 161.86L111.04 179.07H121.1L128.32 168.59L135.31 179.07H145.79V179.06ZM169.12 144.39C164.86 144.39 161.42 145.85 159.12 148.83V144.89H150.3V191.37H159.53V175.43C161.9 178.22 165.15 179.56 169.12 179.56C178.06 179.56 184.99 172.7 184.99 161.97C184.99 151.24 178.06 144.38 169.12 144.38V144.39ZM167.52 171.44C162.9 171.44 159.41 167.88 159.41 161.98C159.41 156.08 162.9 152.52 167.52 152.52C172.14 152.52 175.63 156.08 175.63 161.98C175.63 167.88 172.14 171.44 167.52 171.44ZM199.96 149.4V144.89H191.14V179.05H200.37V162.92C200.37 156.38 203.74 153.39 208.84 153.39C209.55 153.39 210.14 153.45 210.91 153.52V144.38C206 144.38 202.21 146.09 199.96 149.4ZM247.32 162.1C247.32 151.11 240.1 144.38 230.74 144.38C221.38 144.38 213.75 151.75 213.75 161.97C213.75 172.19 220.91 179.56 231.92 179.56C237.66 179.56 242.1 177.65 245.06 174.04L240.15 168.32C237.96 170.54 235.53 171.62 232.16 171.62C227.31 171.62 223.93 169.02 223.04 164.76H247.13C247.19 163.93 247.31 162.86 247.31 162.09L247.32 162.1ZM230.8 151.88C234.94 151.88 237.96 154.67 238.61 158.99H222.92C223.57 154.61 226.59 151.88 230.79 151.88H230.8ZM264.19 179.57C273.72 179.57 279.23 175.06 279.23 168.71C279.23 155.25 259.99 160.9 259.99 155.06C259.99 153.28 261.77 151.88 265.91 151.88C268.81 151.88 271.95 152.52 275.09 154.42L278.17 147.37C275.15 145.46 270.3 144.39 265.92 144.39C256.63 144.39 251.18 148.96 251.18 155.44C251.18 169.09 270.42 163.37 270.42 168.97C270.42 170.87 268.82 172.08 264.56 172.08C260.65 172.08 256.33 170.75 253.49 168.78L250.41 175.89C253.37 177.99 258.82 179.57 264.2 179.57H264.19ZM295.63 179.57C305.16 179.57 310.67 175.06 310.67 168.71C310.67 155.25 291.43 160.9 291.43 155.06C291.43 153.28 293.21 151.88 297.35 151.88C300.25 151.88 303.39 152.52 306.53 154.42L309.61 147.37C306.59 145.46 301.74 144.39 297.36 144.39C288.07 144.39 282.62 148.96 282.62 155.44C282.62 169.09 301.86 163.37 301.86 168.97C301.86 170.87 300.26 172.08 296 172.08C292.09 172.08 287.77 170.75 284.93 168.78L281.85 175.89C284.81 177.99 290.26 179.57 295.64 179.57H295.63Z" fill="black"/>
<path fill-rule="evenodd" clip-rule="evenodd" d="M0 46C0 20.6 20.6 0 46 0C71.41 0 92 20.6 92 46C92 46.6 91.99 47.2 91.96 47.79C91.96 47.88 91.96 47.97 91.95 48.06C91.79 51.55 91.25 54.95 90.36 58.2C87.88 68.29 81.67 84.44 66.14 105.26C57.36 117.03 50.82 134.01 45.98 151.66C41.14 134.01 34.59 117.03 25.82 105.26C9.36 83.19 3.36 66.37 1.19 56.45" fill="#E41E26"/>
<path fill-rule="evenodd" clip-rule="evenodd" d="M8.4502 46C8.4502 66.74 25.2602 83.55 46.0002 83.55C66.7402 83.55 83.5502 66.74 83.5502 46C83.5502 25.26 66.7402 8.45001 46.0002 8.45001C25.2602 8.45001 8.4502 25.26 8.4502 46Z" fill="#E41E26"/>
<path fill-rule="evenodd" clip-rule="evenodd" d="M46.0003 79.23C64.3003 79.23 79.2303 64.3 79.2303 46C79.2303 27.7 64.3003 12.78 46.0003 12.78C27.7003 12.78 12.7803 27.7 12.7803 46C12.7803 64.3 27.7103 79.23 46.0103 79.23H46.0003Z" fill="black"/>
<path fill-rule="evenodd" clip-rule="evenodd" d="M29.2698 31.82H62.7298C69.0398 31.82 74.1998 36.98 74.1998 43.29C74.1998 49.6 69.0398 54.76 62.7298 54.76H29.2698C22.9598 54.76 17.7998 49.6 17.7998 43.29C17.7998 36.98 22.9598 31.82 29.2698 31.82ZM31.7898 36.68C28.1398 36.68 25.1798 39.64 25.1798 43.29C25.1798 46.94 28.1398 49.9 31.7898 49.9C35.4398 49.9 38.3998 46.94 38.3998 43.29C38.3998 39.64 35.4398 36.68 31.7898 36.68ZM60.2198 36.68C56.5698 36.68 53.6098 39.64 53.6098 43.29C53.6098 46.94 56.5698 49.9 60.2198 49.9C63.8698 49.9 66.8298 46.94 66.8298 43.29C66.8298 39.64 63.8698 36.68 60.2198 36.68ZM60.4498 37.44C58.8698 37.44 57.5798 38.72 57.5798 40.31C57.5798 41.9 58.8598 43.18 60.4498 43.18C62.0398 43.18 63.3198 41.9 63.3198 40.31C63.3198 38.72 62.0398 37.44 60.4498 37.44ZM32.0198 37.44C30.4398 37.44 29.1498 38.72 29.1498 40.31C29.1498 41.9 30.4298 43.18 32.0198 43.18C33.6098 43.18 34.8898 41.9 34.8898 40.31C34.8898 38.72 33.6098 37.44 32.0198 37.44Z" fill="white"/>
<path fill-rule="evenodd" clip-rule="evenodd" d="M57.81 131.19L78.29 143.79V175.57L76.86 176.41L46 194.62L15.14 176.41L13.71 175.57V143.78L16.09 142.32L34.17 131.2C34.93 132.89 35.67 134.61 36.4 136.36L21.84 145.32L36.88 154.57L46.02 159.96L55.19 154.55L70.2 145.32L55.61 136.34C56.33 134.59 57.07 132.87 57.84 131.18L57.81 131.19ZM43.19 165.01L43.07 164.94L19.32 150.93V172.2L43.19 186.28V165.01Z" fill="black"/>
</g>
<defs>
<clipPath id="clip0_196_141">
<rect width="460.99" height="194.62" fill="white"/>
</clipPath>
</defs>
</svg>
