<?xml version="1.0" encoding="UTF-8"?>
<svg id="Layer_1" data-name="Layer 1" xmlns="http://www.w3.org/2000/svg" viewBox="0 0 950 950">
  <defs>
    <style>
      .cls-1 {
        fill: #902682;
      }

      .cls-1, .cls-2 {
        fill-rule: evenodd;
      }

      .cls-2 {
        fill: #ec7023;
      }
    </style>
  </defs>
  <path class="cls-1" d="m82.49,724.62h41.08l2.86-14.07h-55.94l-17.28,85.17h55.94l2.85-14.07h-41.08l4.43-21.85h35.29l2.86-14.07h-35.29l4.28-21.11h0Zm72.62,71.1l-8.92-21.48-16.61,21.48h-15.43l27.14-33.08-12.98-31.1h15.43l8.07,19.5,15.19-19.5h15.32l-25.86,30.73,13.98,33.45h-15.32Zm35.49-64.19l-16.92,83.44h14.07l5.23-25.8c2.82,5.1,7.75,7.65,14.79,7.65,4.46,0,8.67-1.15,12.62-3.46,3.95-2.31,7.38-5.7,10.29-10.18s5-9.81,6.25-15.98l1.63-8.02c1.89-9.3,1.25-16.41-1.91-21.35-3.16-4.94-8.26-7.41-15.29-7.41s-12.97,2.8-18.5,8.39l1.48-7.28h-13.73Zm26.69,47.46c-2.68,2.76-6.02,4.13-10.03,4.13s-6.91-1.38-8.69-4.13c-1.78-2.76-2.2-6.48-1.25-11.17l1.65-8.15c1-4.94,2.92-8.78,5.75-11.54,2.83-2.76,6.25-4.13,10.26-4.13,8.4,0,11.52,5.31,9.37,15.92l-1.35,6.67c-1.12,5.51-3.02,9.65-5.69,12.4h0Zm38.11-47.46l-13.02,64.19h14.07l7.21-35.55c1.09-5.35,3.14-9.44,6.18-12.28,3.03-2.84,6.78-4.26,11.25-4.26,3.02,0,5.71.53,8.07,1.6l2.95-14.56c-1.45-.33-3.27-.5-5.46-.5-3.56,0-6.97.72-10.26,2.16-3.28,1.44-6.19,3.6-8.75,6.48l1.48-7.28h-13.73Zm48.13,36.29l-.05.25c-2.09,10.29,1.71,15.43,11.39,15.43,3.25,0,6.05-.66,8.4-1.97,2.35-1.32,3.92-3.17,4.7-5.55l.19-.37h13.73l-.15.74c-1.63,6.17-5.15,11.13-10.56,14.87-5.41,3.74-11.94,5.62-19.58,5.62-8.7,0-15-2.59-18.91-7.78-3.9-5.18-4.84-12.75-2.83-22.71l1.13-5.56c1.99-9.79,5.93-17.3,11.83-22.53,5.9-5.23,13.09-7.84,21.56-7.84s14.6,2.59,18.39,7.78c3.79,5.18,4.71,12.59,2.75,22.22l-1.5,7.41h-40.51Zm2.13-10.49h26.44l.18-.87c.87-4.28.33-7.51-1.61-9.69-1.94-2.18-4.92-3.27-8.92-3.27-8.32,0-13.68,4.61-16.08,13.82h0Zm49.66,33.76c3.74,3.58,9.62,5.37,17.64,5.37s14.98-1.77,20.43-5.31c5.44-3.54,8.84-8.64,10.2-15.3,1.09-5.35.31-9.57-2.31-12.65-2.63-3.09-7.26-5.04-13.9-5.86l-9.17-1.23c-2.96-.33-4.97-1.03-6.04-2.1-1.07-1.07-1.42-2.51-1.05-4.32.45-2.22,1.72-3.93,3.82-5.12,2.1-1.19,5.07-1.79,8.93-1.79,4.09,0,7.02.66,8.79,1.97,1.78,1.32,2.41,3.21,1.91,5.68l-.08.37h13.05l.1-.49c1.24-6.09-.03-10.86-3.79-14.32-3.76-3.46-9.58-5.18-17.45-5.18s-14,1.73-19.09,5.18-8.28,8.35-9.56,14.69c-1.1,5.43-.38,9.61,2.17,12.53,2.55,2.92,7.06,4.83,13.53,5.74l8.51,1.11c3.25.41,5.5,1.15,6.76,2.22,1.26,1.07,1.69,2.59,1.29,4.57-.48,2.39-1.89,4.2-4.22,5.43-2.33,1.24-5.5,1.85-9.51,1.85-4.31,0-7.42-.74-9.31-2.22-1.89-1.48-2.58-3.5-2.06-6.05l.05-.25h-13.16l-.08.37c-1.32,6.5-.11,11.54,3.63,15.12h0Zm59.69,0c3.74,3.58,9.62,5.37,17.63,5.37s14.98-1.77,20.43-5.31c5.44-3.54,8.85-8.64,10.2-15.3,1.09-5.35.31-9.57-2.31-12.65-2.63-3.09-7.26-5.04-13.9-5.86l-9.17-1.23c-2.96-.33-4.97-1.03-6.04-2.1-1.07-1.07-1.42-2.51-1.05-4.32.45-2.22,1.72-3.93,3.82-5.12,2.1-1.19,5.07-1.79,8.93-1.79,4.09,0,7.02.66,8.79,1.97,1.77,1.32,2.41,3.21,1.91,5.68l-.07.37h13.05l.1-.49c1.24-6.09-.03-10.86-3.79-14.32-3.76-3.46-9.58-5.18-17.44-5.18s-14.01,1.73-19.09,5.18-8.28,8.35-9.56,14.69c-1.1,5.43-.38,9.61,2.17,12.53,2.55,2.92,7.06,4.83,13.53,5.74l8.51,1.11c3.25.41,5.5,1.15,6.76,2.22,1.26,1.07,1.69,2.59,1.28,4.57-.48,2.39-1.89,4.2-4.22,5.43-2.33,1.24-5.5,1.85-9.51,1.85-4.31,0-7.42-.74-9.31-2.22-1.89-1.48-2.58-3.5-2.06-6.05l.05-.25h-13.16l-.08.37c-1.32,6.5-.11,11.54,3.63,15.12h0Zm90.5-3.39c4.6,6.25,12.15,9.38,22.67,9.38,9.68,0,17.89-2.59,24.61-7.78,6.73-5.18,11.04-12.47,12.94-21.85l.12-.62h-14.75l-.12.62c-.95,4.69-3.16,8.37-6.61,11.05-3.46,2.68-7.79,4.01-13.01,4.01-6.2,0-10.47-1.89-12.81-5.68-2.33-3.78-2.71-9.59-1.12-17.4l2.48-12.22c1.65-8.15,4.41-14.2,8.28-18.14,3.87-3.95,8.9-5.92,15.1-5.92,5.22,0,9.03,1.38,11.42,4.13,2.39,2.76,3.1,6.52,2.14,11.29l-.1.49h14.87l.2-.99c1.85-9.13.45-16.27-4.22-21.42-4.67-5.14-11.8-7.71-21.41-7.71-10.51,0-19.36,3.13-26.53,9.38-7.17,6.25-12.01,15.59-14.53,28.02l-2.7,13.33c-2.52,12.43-1.48,21.77,3.11,28.02h0Zm73.38,1.6c3.75,5.02,9.82,7.53,18.22,7.53s15.36-2.51,21.1-7.53c5.75-5.02,9.6-12.34,11.55-21.97l1.55-7.65c1.92-9.46,1.02-16.7-2.69-21.72-3.71-5.02-9.73-7.53-18.05-7.53s-15.48,2.49-21.26,7.47c-5.78,4.98-9.63,12.24-11.57,21.79l-1.55,7.65c-1.95,9.63-1.06,16.95,2.69,21.97h0Zm36.93-22.09c-2.15,10.62-7.47,15.92-15.94,15.92s-11.86-5.31-9.71-15.92l1.48-7.28c2.15-10.62,7.54-15.92,16.17-15.92,4.08,0,6.96,1.3,8.63,3.89,1.67,2.59,1.95,6.6.85,12.04l-1.48,7.28h0Zm27.26,22.53c3.47,4.73,9.55,7.1,18.25,7.1s15.74-2.35,21.12-7.04c5.38-4.69,9.01-11.68,10.9-20.98l7.56-37.28h-14.07l-7.41,36.54c-1.02,5.02-2.73,8.78-5.13,11.29-2.4,2.51-5.79,3.76-10.18,3.76s-7.17-1.27-8.58-3.83c-1.41-2.55-1.62-6.3-.62-11.23l7.41-36.54h-14.07l-7.56,37.28c-1.87,9.22-1.07,16.19,2.39,20.92h0Zm70.08-58.2h13.73l-1.48,7.28c2.55-2.88,5.47-5.04,8.75-6.48,3.28-1.44,6.7-2.16,10.25-2.16,2.19,0,4.01.17,5.46.5l-2.95,14.56c-2.35-1.07-5.04-1.6-8.07-1.6-4.46,0-8.21,1.42-11.25,4.26-3.03,2.84-5.09,6.93-6.18,12.28l-7.21,35.55h-14.07l13.02-64.19h0Zm49.61-21.35l-2.48,12.22h13.96l2.48-12.22h-13.96Zm-4.33,21.35l-13.02,64.19h13.96l13.02-64.19h-13.96Zm32.47,36.29h40.51l1.5-7.41c1.95-9.63,1.03-17.03-2.76-22.22-3.79-5.18-9.92-7.78-18.39-7.78s-15.66,2.61-21.56,7.84c-5.9,5.23-9.85,12.74-11.83,22.53l-1.13,5.56c-2.02,9.96-1.08,17.53,2.83,22.71,3.9,5.18,10.21,7.78,18.9,7.78,7.64,0,14.17-1.87,19.58-5.62,5.41-3.74,8.93-8.7,10.56-14.87l.15-.74h-13.73l-.19.37c-.79,2.39-2.35,4.24-4.7,5.55-2.35,1.32-5.15,1.97-8.4,1.97-9.68,0-13.48-5.14-11.4-15.43l.05-.25h0Zm2.13-10.49c2.4-9.22,7.76-13.82,16.08-13.82,4.01,0,6.98,1.09,8.92,3.27,1.94,2.18,2.48,5.41,1.61,9.69l-.18.87h-26.44Zm56.98-25.8l-13.02,64.19h14.07l7.21-35.55c1.09-5.35,3.14-9.44,6.18-12.28,3.03-2.84,6.78-4.26,11.25-4.26,3.03,0,5.72.53,8.07,1.6l2.95-14.56c-1.45-.33-3.27-.5-5.46-.5-3.56,0-6.97.72-10.25,2.16-3.28,1.44-6.2,3.6-8.75,6.48l1.48-7.28h-13.73Z"/>
  <path class="cls-1" d="m817.54,307.57C452.53,256.56,185.03,410.94,23.25,644.09,101.31,447.73,319.88,237.14,572.47,181.67c-.06-15.33-.12-30.67-.18-46,81.75,57.3,163.49,114.6,245.24,171.91Z"/>
  <path class="cls-2" d="m529.91,489.14c4.55-7.26.71-1.71,4.09-4.96l11.34,89.11-59.27-.05,43.84-84.1h0Zm-185.64,208.94l75.27.43,34.38-63.84,98.32.44,8.32,62.91,69.72.53-24.09-169.77-25.4-165.45-53.2.12-183.31,334.63h0Zm422.49-262.43c2.66-11.33-.34-4.76,5.09-8.09,14.75.02,53.88-1.77,65.68,2.33,17.19,5.96,19.47,27.39,13.14,45.52-13.75,39.42-52.54,34.08-97.63,34.17l13.73-73.93h0Zm-122.79,262.49l70.48-.68,5.93-30.74c6.22-30.47,12.04-61.34,18.72-92.51,19.37.19,79.16,11.08,131.22-20.15,67.17-40.3,78.11-163.11-10.28-186.65-25.52-6.8-117.52-5.19-148.51-3.7l-67.57,334.43h0Zm-477.37-210.41c-7.94-72.45,43.84-119.21,111.13-125.9,14.23-1.42,24.69-1.23,38.86.5,31.27,3.81,63.94,21.4,79.94,49.07l-49.45,42.08c-12.15-10.66-11.63-17.75-29.92-24.83-25.67-9.95-63.2-4.9-77.38,22.69-25.48,49.57,51.1,42.17,88.4,63.07,22.05,12.36,38.86,31.13,41.59,65.21,8.52,106.48-108.86,140.72-190.06,112.72-22.16-7.64-51.51-31.9-59.71-47.52,7.48-7.1,44.27-40.4,52.83-44.49,11.25,25.58,45.88,39.52,77.61,36.17,45.37-4.8,58.51-39.53,46.86-57.57-18.56-28.72-112.34-5.62-130.71-91.2Z"/>
</svg>