<svg width="432" height="446" viewBox="0 0 432 446" fill="none" xmlns="http://www.w3.org/2000/svg">
<g clip-path="url(#clip0_196_119)">
<path fill-rule="evenodd" clip-rule="evenodd" d="M153.45 288.45C206.45 288.45 249.67 284.35 249.67 279.33C249.67 274.31 206.45 270.21 153.45 270.21C100.45 270.21 57.2305 274.31 57.2305 279.33C57.2305 284.35 100.45 288.45 153.45 288.45Z" fill="#CAC9C9"/>
<path fill-rule="evenodd" clip-rule="evenodd" d="M148.17 0L330.33 77.32C335.57 79.54 338.04 85.65 335.81 90.89L258.49 273.05C256.27 278.29 250.16 280.76 244.92 278.53L62.7604 201.22C57.5204 199 55.0504 192.89 57.2804 187.65L134.6 5.48" fill="#921D26"/>
<path fill-rule="evenodd" clip-rule="evenodd" d="M325.79 87.05C326.18 88.01 326.2 89.11 325.77 90.13L250.97 266.35C250.1 268.39 247.73 269.35 245.68 268.49L69.4598 193.69C68.4398 193.26 67.6898 192.45 67.2998 191.49L325.79 87.06V87.05Z" fill="#70161E"/>
<path fill-rule="evenodd" clip-rule="evenodd" d="M148.32 16.04L318.7 88.36C319.73 88.8 320.22 90.01 319.78 91.04L247.46 261.42C247.02 262.45 245.81 262.94 244.78 262.5L74.4004 190.18C73.3604 189.74 72.8804 188.53 73.3204 187.5L145.64 17.12" fill="#D5232B"/>
<path fill-rule="evenodd" clip-rule="evenodd" d="M319.8 89.48C320 89.97 320.01 90.53 319.79 91.04L247.47 261.42C247.03 262.45 245.82 262.94 244.79 262.5L74.4103 190.18C73.8903 189.96 73.5103 189.55 73.3203 189.06L319.81 89.47L319.8 89.48Z" fill="#A11F24"/>
<path fill-rule="evenodd" clip-rule="evenodd" d="M288.5 94.5601L182.77 147.86L172.27 100.62L288.5 94.5601Z" fill="white"/>
<path fill-rule="evenodd" clip-rule="evenodd" d="M107.22 185.94L212.96 132.64L223.46 179.88L107.22 185.94Z" fill="#E6E6E6"/>
<path fill-rule="evenodd" clip-rule="evenodd" d="M182.77 147.86L212.96 132.64L215.18 142.64L182.77 147.86Z" fill="#B3B3B3"/>
<path fill-rule="evenodd" clip-rule="evenodd" d="M39 325.1V344.6H34.5C34.5 344.6 26.81 343.48 26.81 346.85C26.81 350.22 30.19 351.35 34.87 355.1C39.56 358.85 46.87 367.48 46.87 377.41C46.87 387.34 40.31 400.1 19.68 400.1C-0.949999 400.1 0.74 397.85 0.74 397.85V375.91C0.74 375.91 7.68 378.16 14.05 378.16C20.42 378.16 21.55 376.1 21.55 374.04C21.55 371.98 0 358.86 0 345.74C0 340.54 1.31 322.67 24.75 322.67C33.95 322.85 39 325.11 39 325.11V325.1Z" fill="#D5232B"/>
<path d="M78.1904 322.67H54.4004V400.11H78.1904V322.67Z" fill="#D5232B"/>
<path fill-rule="evenodd" clip-rule="evenodd" d="M182.44 380.42H204.73V400.1H182.44H160.15V322.67H182.44H204.73V342.35H182.44V351.54H201.94V371.23H182.44V380.42Z" fill="#D5232B"/>
<path fill-rule="evenodd" clip-rule="evenodd" d="M214.9 322.67H244.31C260.76 322.67 274.22 336.13 274.22 352.58C274.22 369.03 262.18 382.49 245.73 382.49H238.7V400.12H214.91V322.68L214.9 322.67ZM238.69 343.29V361.85H240.01C245.12 361.85 249.29 357.67 249.29 352.57C249.29 347.46 245.11 343.29 240.01 343.29H238.69Z" fill="#D5232B"/>
<path fill-rule="evenodd" clip-rule="evenodd" d="M127.88 322.57C138.13 322.57 147.45 326.55 154.37 333.05L140.76 350.38C137.66 346.73 133.04 344.41 127.88 344.41C118.56 344.41 111.01 351.96 111.01 361.28C111.01 370.6 118.56 378.15 127.88 378.15C133.04 378.15 137.66 375.83 140.76 372.18L154.37 389.51C147.44 396.01 138.13 399.99 127.88 399.99C106.5 399.99 89.1602 382.66 89.1602 361.27C89.1602 339.88 106.49 322.55 127.88 322.55V322.57Z" fill="#D5232B"/>
<path fill-rule="evenodd" clip-rule="evenodd" d="M306.15 322.67L346.79 400.1H265.52L306.15 322.67Z" fill="#D5232B"/>
<path fill-rule="evenodd" clip-rule="evenodd" d="M296.36 400.1H280.76L306.77 360.42L325.7 381.05L296.36 400.1Z" fill="#E6E6E6"/>
<path fill-rule="evenodd" clip-rule="evenodd" d="M296.05 376.78L306.77 360.42L310.78 364.79L296.05 376.78Z" fill="#B3B3B3"/>
<path fill-rule="evenodd" clip-rule="evenodd" d="M311.88 333.58L317.43 344.16L296.05 376.78L284.41 364.1L294.51 344.86L311.88 333.58Z" fill="white"/>
<path fill-rule="evenodd" clip-rule="evenodd" d="M355.15 322.67H378.94H393.1V343.1H378.94V400.1H355.15V343.1H340.99V322.67H355.15Z" fill="#D5232B"/>
<path fill-rule="evenodd" clip-rule="evenodd" d="M216.38 417.9L216.94 414.08H195.24L194.66 417.9H216.38ZM193.23 427.35L190.59 444.83H212.95L213.51 441.01H195.54L197.03 431.08H212.49L213.05 427.35H193.22H193.23ZM241.34 428.36L257.21 414.08H251.5L232.65 431.08L235.2 414.08H230.81L226.16 444.83H230.55L231.74 436.83L238.22 431.03L248.25 444.82H253.17L241.26 428.43L241.34 428.34V428.36ZM272.71 445.18C280.35 445.18 285.54 441.58 285.25 435.6C284.79 426.24 269.17 429.32 268.86 422.86C268.7 419.61 271.8 417.46 276.86 417.46C279.98 417.46 282.96 418.29 285.33 419.92L286.91 416.32C284.32 414.65 280.68 413.73 276.9 413.73C269.39 413.73 264.29 417.38 264.58 423.26C265.06 433.1 280.67 429.81 280.98 436.22C281.14 439.56 277.9 441.45 272.93 441.45C269.11 441.45 265.22 440.09 262.79 437.94L261.03 441.45C263.37 443.56 268.02 445.18 272.72 445.18H272.71ZM312.68 414.08H301.26L296.61 444.83H301L302.39 435.52H310.6C319.47 435.52 324.79 430.95 324.4 423.09C324.12 417.38 319.83 414.08 312.67 414.08H312.68ZM310.51 431.69H303L305.1 417.9H312.48C317.14 417.9 319.86 419.79 320.04 423.48C320.3 428.88 316.79 431.7 310.51 431.7V431.69ZM361.91 423.08C361.63 417.37 357.34 414.07 350.14 414.07H338.67L334.02 444.82H338.46L339.85 435.42H348.9L354.72 444.82H359.38L353.27 434.8C359 433.31 362.22 429.18 361.92 423.07L361.91 423.08ZM348.01 431.69H340.41L342.51 417.9H349.93C354.63 417.9 357.36 419.79 357.54 423.48C357.8 428.88 354.29 431.7 348.01 431.7V431.69ZM397.87 417.9L398.43 414.08H376.73L376.15 417.9H397.87ZM374.73 427.35L372.09 444.83H394.45L395.01 441.01H377.04L378.53 431.08H393.99L394.55 427.35H374.72H374.73ZM417.15 445.18C424.79 445.18 429.98 441.58 429.69 435.6C429.23 426.24 413.61 429.32 413.3 422.86C413.14 419.61 416.24 417.46 421.3 417.46C424.42 417.46 427.4 418.29 429.77 419.92L431.35 416.32C428.76 414.65 425.12 413.73 421.34 413.73C413.83 413.73 408.73 417.38 409.02 423.26C409.5 433.1 425.11 429.81 425.42 436.22C425.58 439.56 422.34 441.45 417.37 441.45C413.55 441.45 409.66 440.09 407.23 437.94L405.47 441.45C407.81 443.56 412.46 445.18 417.16 445.18H417.15Z" fill="#999999"/>
</g>
<defs>
<clipPath id="clip0_196_119">
<rect width="431.34" height="445.18" fill="white"/>
</clipPath>
</defs>
</svg>
